<?xml version="1.0" encoding="utf-8"?>
<!-- Generator: Adobe Illustrator 21.0.0, SVG Export Plug-In . SVG Version: 6.00 Build 0)  -->
<svg version="1.1" id="Слой_1" xmlns="http://www.w3.org/2000/svg" xmlns:xlink="http://www.w3.org/1999/xlink" x="0px" y="0px"
	 viewBox="0 0 100 100" style="enable-background:new 0 0 100 100;" xml:space="preserve">
<style type="text/css">
	.st0{fill:#FFFFFF;}
</style>
<g>
	<path d="M75,36c0,15.3,0,30.6,0,45.9c-15.6,0-31.2,0-46.9,0c0-19.9,0-39.9,0-59.9C39.1,22,50,22,61,22C65.7,26.7,70.3,31.3,75,36z
		 M59,24.3c-10,0-19.3,0-28.7,0c0,18.6,0,37,0,55.4c14.4,0,28.4,0,42.4,0c0-14,0-27.6,0-41.7c-4.6,0-9,0-13.8,0
		C59,33.1,59,28.8,59,24.3z M69.3,35.8c-2.4-2.9-5.1-6.1-8-9.6c0,3.6,0,6.5,0,9.6C64.4,35.8,67.3,35.8,69.3,35.8z"/>
	<path class="st0" d="M75,36c-4.7-4.7-9.3-9.3-14-14c4.6,0,9.2,0,14,0C75,26.7,75,31.3,75,36z"/>
	<path class="st0" d="M59,24.3c0,4.6,0,8.9,0,13.7c4.7,0,9.1,0,13.8,0c0,14.1,0,27.7,0,41.7c-14,0-28.1,0-42.4,0
		c0-18.4,0-36.7,0-55.4C39.7,24.3,49,24.3,59,24.3z M64.5,45.5c0-0.3,0-0.7,0-1c-8.7,0-17.4,0-26.1,0c0,0.3,0,0.7,0,1
		C47.1,45.5,55.8,45.5,64.5,45.5z M38.4,52.5c0,0.3,0,0.6,0,0.9c8.7,0,17.4,0,26.1,0c0-0.3,0-0.6,0-0.9
		C55.8,52.5,47.1,52.5,38.4,52.5z M64.5,61.7c0-0.3,0-0.7,0-1c-8.7,0-17.4,0-26.1,0c0,0.3,0,0.7,0,1C47.2,61.7,55.8,61.7,64.5,61.7z
		 M38.5,68.4c0,0.3,0,0.7,0,1c8.7,0,17.4,0,26.1,0c0-0.3,0-0.7,0-1C55.9,68.4,47.2,68.4,38.5,68.4z"/>
	<path class="st0" d="M69.3,35.8c-2,0-4.9,0-8,0c0-3.1,0-6,0-9.6C64.2,29.7,66.8,32.9,69.3,35.8z"/>
	<path d="M64.5,45.5c-8.7,0-17.4,0-26.1,0c0-0.3,0-0.7,0-1c8.7,0,17.4,0,26.1,0C64.5,44.8,64.5,45.2,64.5,45.5z"/>
	<path d="M38.4,52.5c8.7,0,17.4,0,26.1,0c0,0.3,0,0.6,0,0.9c-8.7,0-17.4,0-26.1,0C38.5,53.1,38.5,52.8,38.4,52.5z"/>
	<path d="M64.5,61.7c-8.7,0-17.4,0-26.1,0c0-0.3,0-0.7,0-1c8.7,0,17.4,0,26.1,0C64.5,61,64.5,61.3,64.5,61.7z"/>
	<path d="M38.5,68.4c8.7,0,17.4,0,26.1,0c0,0.3,0,0.7,0,1c-8.7,0-17.4,0-26.1,0C38.5,69,38.5,68.7,38.5,68.4z"/>
</g>
</svg>
