<svg version="1.1" id="data" xmlns="http://www.w3.org/2000/svg"  x="0px" y="0px"
	 viewBox="0 0 100 100" style="enable-background:new 0 0 100 100;" xml:space="preserve">
<style type="text/css">
	.st0{fill:none;stroke:rgb(70, 185, 228);stroke-width:2;stroke-linecap:round;stroke-linejoin:round;stroke-miterlimit:10;}
</style>
<g>
	<g>
		<path d="M86,30c-3.3,0-2,2.6-2,4C83.9,44.5,84,55,84,65.4c0,1.6,0,3.3,0,5.5c-9.2,0-18.1,0-27.8,0c0.4,2.7,0.8,4.7,1,6.8
			c0.1,1.5,0.2,3-0.1,4.4c0,0.2-2.8,0.4-2.9,0.1c-0.4-1.4-0.5-2.9-0.4-4.4c0.2-2,0.7-4,1.2-6.8c-9.7,0-18.6,0-28,0
			c0-9.9,0.3-19.2-0.1-28.4c-0.3-6.9-1.3-13.8-2-20.7c20.3,0,40.7,0,61,0C86,24.7,86,27.3,86,30z M29.2,30c0,13.3,0,26,0,38.9
			c17.7,0,35.1,0,52.5,0c0-13.1,0-26,0-38.9C64.1,30,46.8,30,29.2,30z M27.3,24.1c-1,3.1,0,4,2.7,4C47,28,64,28,81,28.1
			c3.1,0,3.7-1.3,2.6-4C64.8,24.1,46.2,24.1,27.3,24.1z"/>
		<path d="M55.2,67.1c-9.7-0.1-17.3-7.9-17.2-17.7C38.1,39.7,45.8,32,55.5,32C65.4,32,73.2,40,73,50C72.9,59.6,65,67.2,55.2,67.1z
			 M54.7,50.4c0-3.4,0-5.8,0-8.3c0-2.6,0-5.2,0-7.8c-9,0.2-15.1,7-14.9,15.7c0.2,8.6,7.1,15.3,15.8,15.2c8.5,0,15.1-6.2,15.1-14.9
			c-2.4,0-4.9,0-7.3,0C60.7,50.4,58.1,50.4,54.7,50.4z M70.8,48.4c-0.4-8.3-6-13.8-13.8-14.1c-2.9,13.1-1.6,14.8,11,14.4
			C68.8,48.7,69.7,48.5,70.8,48.4z"/>
		<path class="st0" d="M83,29.5c3.8-0.8,2.2-3.8,2.6-6.3c-19.7,0-39.4,0-59,0C25.7,29.2,25.7,29,31,29c17.2,0.1,34.3,0.3,51.5,0.5"
			/>
		<path class="st0" d="M55.5,33.5c-7.4-2-15.5,5.9-16.4,13c-1.4,10.6,4.2,17,12.5,19.4C60.2,68.3,68.9,63,71.4,54
			c3.1-11.1-4.8-20.9-15.4-21"/>
		<path class="st0" d="M28,30c0,13.2,0,26.3,0,40c18.5,0,36.5,0,55,0c0-13.7,0-26.8,0-40"/>
		<path class="st0" d="M55.5,34c0,5,0,10,0,15.5c5.5,0,10.5,0,15.5,0"/>
		<path class="st0" d="M55.5,71c0,3.5,0,7,0,10.5"/>
	</g>
</g>
</svg>
