<svg version="1.1" id="Слой_1" xmlns="http://www.w3.org/2000/svg" xmlns:xlink="http://www.w3.org/1999/xlink" x="0px" y="0px"
	 viewBox="0 0 100 100" style="enable-background:new 0 0 100 100;" xml:space="preserve">
<g>
	<g>
		<path d="M78.3,71.2c-1.2-6.4-6.2-11.5-12.6-12.7c-1-0.2-1.9-0.3-2.9-0.3h-3.1c-0.3,0-0.5,0.1-0.7,0.3l-6.4,6.4l-6.4-6.4
			c-0.2-0.2-0.4-0.3-0.7-0.3h-3.1c-1,0-2,0.1-2.9,0.3C33,59.7,28,64.8,26.8,71.2l-1,5.7c-0.1,0.3,0,0.6,0.2,0.8
			c0.2,0.2,0.5,0.4,0.8,0.4h51.6c0.3,0,0.6-0.1,0.8-0.4c0.2-0.2,0.3-0.5,0.2-0.8L78.3,71.2z M42.4,60.2h2.7l6.8,6.8
			c0.4,0.4,1,0.4,1.4,0l6.8-6.8h2.7c0.9,0,1.7,0.1,2.6,0.2c5.6,1.1,10,5.5,11,11.1l0.8,4.5H27.9l0.8-4.5c1-5.6,5.4-10.1,11-11.1
			C40.6,60.3,41.5,60.2,42.4,60.2z"/>
		<path d="M43.7,35.4c0.6,0,1-0.5,1-1l0-3.5c0-0.1,0-0.3-0.1-0.4c-0.2-0.4-0.5-0.6-0.9-0.6H40c-0.6,0-1,0.5-1,1s0.5,1,1,1h1.3
			L41,32.1l-3.8,3.8l-0.1-0.1l-1.6-1.6c-0.2-0.2-0.5-0.3-0.7-0.3c-0.3,0-0.5,0.1-0.7,0.3l-3.5,3.5c-0.4,0.4-0.4,1,0,1.4
			c0.2,0.2,0.4,0.3,0.7,0.3s0.5-0.1,0.7-0.3l2.8-2.8l0.1,0.1l1.6,1.6c0.4,0.4,1,0.4,1.4,0l4.6-4.6v1C42.6,35,43.1,35.4,43.7,35.4z"
			/>
		<path d="M37.6,21.9c-7,0-12.8,5.7-12.8,12.8s5.7,12.8,12.8,12.8c7,0,12.8-5.7,12.8-12.8S44.6,21.9,37.6,21.9z M37.6,45.6
			c-6,0-10.9-4.9-10.9-10.9s4.9-10.9,10.9-10.9s10.9,4.9,10.9,10.9S43.5,45.6,37.6,45.6z"/>
		<path d="M61.4,27.8c-1.5-1.6-3.5-2.5-5.7-2.5h-6.2c-0.2,0-0.3,0-0.5,0c0.5,0.6,1,1.3,1.4,2h5.1c1.3,0.1,2.4,0.3,3.3,0.8
			c0.4,0.2,0.8,0.5,1.2,1c1.1,1.2,1.7,2.7,1.6,4.2l0,1.2l-0.2,3.1l-0.7,10c-0.2,2.7-1.7,5.2-4.1,6.5c-2.4,1.3-5.3,1.3-7.7,0
			c-2.4-1.3-3.9-3.7-4.1-6.4c-0.6,0.3-1.2,0.6-1.9,0.8c0.4,3.1,2.3,5.8,5,7.3c1.5,0.8,3.1,1.2,4.8,1.2c1.7,0,3.4-0.4,4.8-1.2
			c3-1.6,4.9-4.6,5.1-8l0.9-14.3C63.6,31.4,62.8,29.3,61.4,27.8z"/>
	</g>
</g>
</svg>
