<svg version="1.1" id="Слой_1" xmlns="http://www.w3.org/2000/svg" xmlns:xlink="http://www.w3.org/1999/xlink" x="0px" y="0px"
	 viewBox="0 0 100 100" style="enable-background:new 0 0 100 100;" xml:space="preserve">
<g>
	<path d="M66.1,21.7C64.7,20,62.7,19,60.6,19h-6c-2.1,0-4.1,1-5.5,2.7c-1.4,1.7-2.1,4-2,6.4L48,43.6c0.2,3.7,2.1,7.1,5,8.9
		c1.4,0.9,3,1.3,4.6,1.3c1.6,0,3.2-0.5,4.6-1.3c2.9-1.8,4.7-5,5-8.7L68.1,28C68.3,25.7,67.5,23.4,66.1,21.7z M54.6,21.2h5.8
		c1.3,0.1,2.3,0.4,3.2,0.9c0.4,0.2,0.7,0.6,1.1,1.1c1.1,1.3,1.6,2.9,1.6,4.6l0,1.3L66,32.4l-0.6,11c-0.2,3-1.7,5.6-4,7.1
		c-2.3,1.4-5.2,1.4-7.4,0c-2.3-1.4-3.8-4.1-4-7.1L49,27.9c-0.1-1.8,0.4-3.5,1.5-4.7C51.6,21.9,53.1,21.2,54.6,21.2z"/>
	<path d="M82.4,73.5c-1.1-7-6-12.6-12.2-13.9c-0.9-0.2-1.9-0.3-2.8-0.3h-3c-0.3,0-0.5,0.1-0.7,0.3l-6.1,7l-6.1-7
		c-0.2-0.2-0.4-0.3-0.7-0.3h-3c-0.9,0-1.9,0.1-2.8,0.3c-6.2,1.3-11.1,6.9-12.2,13.9l-1,6.3c-0.1,0.3,0,0.6,0.2,0.9
		c0.2,0.2,0.5,0.4,0.7,0.4h49.8c0.3,0,0.6-0.1,0.7-0.4c0.2-0.2,0.3-0.6,0.2-0.9L82.4,73.5z M47.8,61.5h2.6l6.5,7.4
		c0.3,0.4,1,0.4,1.4,0l6.5-7.4h2.6c0.8,0,1.7,0.1,2.5,0.3c5.4,1.2,9.7,6,10.6,12.2l0.8,5H33.9l0.8-5c1-6.1,5.3-11,10.6-12.2
		C46.1,61.5,46.9,61.5,47.8,61.5z"/>
	<path d="M27.2,46.2c0.6-0.4,1.2-0.8,1.9-1.2l-0.2-3.2c-0.1-1.1,0.3-2.1,0.9-2.9c0.7-0.8,1.6-1.2,2.5-1.2l3.9,0
		c0.8,0.1,1.5,0.2,2,0.5c0.2,0.1,0.4,0.3,0.7,0.7c0.7,0.8,1,1.8,1,2.9l0,0.9l-0.1,2.4c0.7,0.3,1.3,0.7,1.9,1.1l0.2-4.2
		c0.1-1.7-0.4-3.4-1.5-4.6c-1-1.2-2.5-1.9-4-1.9h-4.1c-1.5,0-2.9,0.7-4,1.9c-1,1.2-1.5,2.9-1.5,4.6L27.2,46.2z"/>
	<path d="M31.5,68.9c-0.6-0.2-1.2-0.5-1.8-0.9l10.8-16.7c1.5,1.5,2.5,3.6,2.9,5.9c0.4-0.1,0.7-0.2,1.1-0.3c0.2,0,0.5-0.1,0.7-0.1
		c-1-5.8-5.5-10.2-10.8-10.2c-6.1,0-11,5.6-11,12.5c0,5.3,3.1,10.1,7.5,11.8C31.1,70.2,31.3,69.6,31.5,68.9z M25.2,59.1
		c0-5.7,4.1-10.4,9.2-10.4c1.6,0,3.3,0.5,4.7,1.4L28.3,66.8C26.3,64.8,25.2,62,25.2,59.1z"/>
	<path d="M29.9,76.1H18.7l0.5-2.9c0.4-2.6,1.8-4.9,3.7-6.4c-0.3-0.6-0.6-1.3-0.9-2c-2.5,1.8-4.2,4.7-4.8,8L16.6,77
		c-0.1,0.3,0,0.7,0.2,0.9c0.2,0.3,0.5,0.4,0.7,0.4h12L29.9,76.1z"/>
</g>
</svg>
