<svg id="SvgjsSvg1012" xmlns="http://www.w3.org/2000/svg" version="1.1" xmlns:xlink="http://www.w3.org/1999/xlink" xmlns:svgjs="http://svgjs.com/svgjs" width="20" height="20" viewBox="0 0 20 20"><title>instagram copy</title><desc>Created with Avocode.</desc><defs id="SvgjsDefs1013"></defs><path id="SvgjsPath1014" d="M1351 1505H1335C1333.9 1505 1333 1505.9 1333 1507V1523C1333 1524.1 1333.9 1525 1335 1525H1351C1352.1 1525 1353 1524.1 1353 1523V1507C1353 1505.9 1352.1 1505 1351 1505ZM1343 1511C1345.2 1511 1347 1512.8 1347 1515C1347 1517.2 1345.2 1519 1343 1519C1340.8 1519 1339 1517.2 1339 1515C1339 1512.8 1340.8 1511 1343 1511ZM1335.5 1523C1335.2 1523 1335 1522.8 1335 1522.5V1514H1337.1C1337 1514.3 1337 1514.7 1337 1515C1337 1518.3 1339.7 1521 1343 1521C1346.3 1521 1349 1518.3 1349 1515C1349 1514.7 1349 1514.3 1348.9 1514H1351V1522.5C1351 1522.8 1350.8 1523 1350.5 1523ZM1351 1509.5C1351 1509.8 1350.8 1510 1350.5 1510H1348.5C1348.2 1510 1348 1509.8 1348 1509.5V1507.5C1348 1507.2 1348.2 1507 1348.5 1507H1350.5C1350.8 1507 1351 1507.2 1351 1507.5Z " fill="#000000" fill-opacity="1" transform="matrix(1,0,0,1,-1333,-1505)"></path><path id="SvgjsPath1015" d="M1351 1505H1335C1333.9 1505 1333 1505.9 1333 1507V1523C1333 1524.1 1333.9 1525 1335 1525H1351C1352.1 1525 1353 1524.1 1353 1523V1507C1353 1505.9 1352.1 1505 1351 1505ZM1343 1511C1345.2 1511 1347 1512.8 1347 1515C1347 1517.2 1345.2 1519 1343 1519C1340.8 1519 1339 1517.2 1339 1515C1339 1512.8 1340.8 1511 1343 1511ZM1335.5 1523C1335.2 1523 1335 1522.8 1335 1522.5V1514H1337.1C1337 1514.3 1337 1514.7 1337 1515C1337 1518.3 1339.7 1521 1343 1521C1346.3 1521 1349 1518.3 1349 1515C1349 1514.7 1349 1514.3 1348.9 1514H1351V1522.5C1351 1522.8 1350.8 1523 1350.5 1523ZM1351 1509.5C1351 1509.8 1350.8 1510 1350.5 1510H1348.5C1348.2 1510 1348 1509.8 1348 1509.5V1507.5C1348 1507.2 1348.2 1507 1348.5 1507H1350.5C1350.8 1507 1351 1507.2 1351 1507.5Z " fill="#ffffff" fill-opacity="1" transform="matrix(1,0,0,1,-1333,-1505)"></path></svg>