
<svg version="1.1" id="Слой_1" xmlns="http://www.w3.org/2000/svg"  x="0px" y="0px"
	 viewBox="0 0 100 100" style="enable-background:new 0 0 100 100;" xml:space="preserve">
<style type="text/css">
	.st0{stroke:rgb(70, 155, 228);stroke-miterlimit:10;}
</style>
<g>
	<path class="st0" d="M16.2,81.7h71.5c2.6,0,4.6-2.4,4.6-5.3v-1.5c0-0.5-0.4-0.9-0.8-0.9h-1.7V24.5c0-3.4-2.4-6.2-5.4-6.2H19.6
		c-3,0-5.4,2.8-5.4,6.2V74h-1.7c-0.4,0-0.8,0.4-0.8,0.9v1.5C11.6,79.3,13.7,81.7,16.2,81.7z M15.8,24.5c0-2.4,1.7-4.3,3.8-4.3h64.9
		c2.1,0,3.8,1.9,3.8,4.3V74H15.8V24.5z M13.2,75.8h34.1v0.5c0,0.5,0.4,0.9,0.8,0.9h7.7c0.4,0,0.8-0.4,0.8-0.9v-0.5h34.1v0.5
		c0,1.9-1.4,3.5-3,3.5H16.2c-1.7,0-3-1.6-3-3.5V75.8z"/>
	<path class="st0" d="M72.4,39.2c1.9,0,3.4-1.7,3.4-3.9s-1.5-3.9-3.4-3.9c-1.9,0-3.4,1.7-3.4,3.9c0,0.8,0.2,1.5,0.6,2.2l0.2,0.3
		l-6.4,10l-0.3-0.1c-0.9-0.3-1.8-0.2-2.6,0.3l-0.3,0.2L55,43l0.1-0.3c0.2-0.5,0.2-0.9,0.2-1.4c0-2.1-1.5-3.9-3.4-3.9
		c-1.9,0-3.4,1.7-3.4,3.9c0,0.6,0.1,1.1,0.3,1.7l0.1,0.3l-5.6,6.4l-0.3-0.2c-0.5-0.3-0.9-0.4-1.5-0.4c-1.9,0-3.4,1.7-3.4,3.9
		c0,0.2,0,0.3,0,0.5l0,0.4l-4.3,2.5L33.9,56c-0.6-0.7-1.5-1.1-2.3-1.1c-1.9,0-3.4,1.7-3.4,3.9s1.5,3.9,3.4,3.9
		c1.9,0,3.4-1.7,3.4-3.9c0-0.2,0-0.3,0-0.5l0-0.4l4.3-2.5l0.2,0.3c0.6,0.7,1.5,1.1,2.3,1.1c1.9,0,3.4-1.7,3.4-3.9
		c0-0.6-0.1-1.1-0.3-1.7l-0.1-0.3l5.6-6.4l0.3,0.2c1,0.5,2.2,0.5,3.1-0.1l0.3-0.2l5.3,5.3L59.1,50c-0.2,0.5-0.2,0.9-0.2,1.4
		c0,2.1,1.5,3.9,3.4,3.9s3.4-1.7,3.4-3.9c0-0.8-0.2-1.5-0.6-2.2L64.8,49l6.4-10l0.3,0.1C71.8,39.2,72.1,39.2,72.4,39.2z M31.6,60.8
		c-1,0-1.7-0.9-1.7-2c0-1.1,0.8-2,1.7-2c1,0,1.7,0.9,1.7,2C33.3,59.9,32.5,60.8,31.6,60.8z M41.8,54.9c-1,0-1.7-0.9-1.7-2
		s0.8-2,1.7-2c1,0,1.7,0.9,1.7,2S42.7,54.9,41.8,54.9z M52,43.2c-1,0-1.7-0.9-1.7-2c0-1.1,0.8-2,1.7-2c1,0,1.7,0.9,1.7,2
		C53.7,42.3,53,43.2,52,43.2z M62.2,53.5c-1,0-1.7-0.9-1.7-2s0.8-2,1.7-2c1,0,1.7,0.9,1.7,2S63.2,53.5,62.2,53.5z M70.7,35.4
		c0-1.1,0.8-2,1.7-2c1,0,1.7,0.9,1.7,2c0,1.1-0.8,2-1.7,2C71.5,37.4,70.7,36.5,70.7,35.4z"/>
</g>
</svg>
