
<svg version="1.1" id="Слой_1" xmlns="http://www.w3.org/2000/svg"  x="0px" y="0px"
	 viewBox="0 0 100 100" style="enable-background:new 0 0 100 100;" xml:space="preserve">
<style type="text/css">
	.st0{stroke:rgb(70, 155, 228);stroke-miterlimit:10;}
</style>
<g>
	<path class="st0" d="M55.8,76c-1-5.6-5.5-10.1-11.2-11.2c-0.9-0.2-1.7-0.2-2.6-0.2h-2.7c-0.3,0-0.5,0.1-0.7,0.3L33,70.3l-5.4-5.4
		c-0.2-0.2-0.5-0.3-0.7-0.3h-2.7c-0.9,0-1.7,0.1-2.6,0.2c-5.7,1.1-10.2,5.6-11.2,11.2c-0.3,1.5,0.1,3.1,1.1,4.3
		c1,1.2,2.5,1.9,4.1,1.9h35c1.6,0,3.1-0.7,4.1-1.9C55.6,79.2,56,77.6,55.8,76z M53,79c-0.6,0.7-1.5,1.1-2.4,1.1h-35
		c-0.9,0-1.8-0.4-2.4-1.1c-0.6-0.7-0.9-1.7-0.7-2.6c0.9-4.8,4.7-8.6,9.5-9.5c0.7-0.1,1.5-0.2,2.2-0.2h2.3l5.9,5.8
		c0.4,0.4,1.1,0.4,1.5,0l5.9-5.8H42c0.7,0,1.5,0.1,2.2,0.2c4.8,0.9,8.6,4.7,9.5,9.5C53.9,77.3,53.6,78.3,53,79z"/>
	<path class="st0" d="M41.5,56.5c0.3-0.8,0.4-1.6,0.5-2.4l0.1-0.8h46.7c0.6,0,1.1-0.5,1.1-1s-0.5-1-1.1-1H86v-30c0-0.6-0.5-1-1.1-1
		h-8.6c-0.6,0-1.1,0.5-1.1,1v30h-3.7V37.8c0-0.6-0.5-1-1.1-1h-8.6c-0.6,0-1.1,0.5-1.1,1v13.4h-3.6v-23c0-0.6-0.5-1-1.1-1h-8.6
		c-0.6,0-1.1,0.5-1.1,1v23h-4.4l0.6-9.4c0.1-1.8-0.5-3.6-1.6-4.9L41,36.6V18.8c0-0.6-0.5-1-1.1-1s-1.1,0.5-1.1,1V35l-1-0.3
		c-0.7-0.2-1.4-0.3-2.1-0.3h-4.1l-2.1,0l-0.6,0.1c-1.4,0.3-2.8,1-3.7,2.1c-1.3,1.4-2,3.3-1.9,5.2l0.8,12.4c0.2,3,1.9,5.7,4.6,7.2
		c2.6,1.4,6,1.4,8.6,0c0.7-0.4,1.4-0.9,2-1.5l0.2-0.2l1.5-2.1L41.5,56.5z M77.4,22.2h6.5v29h-6.5V22.2z M63,38.8h6.5v12.4H63V38.8z
		 M48.7,29.2h6.5v22h-6.5V29.2z M40.7,41.6l-0.1,1.2L40.4,45l-0.6,9c-0.2,2.3-1.5,4.4-3.5,5.5c-1,0.6-2.2,0.8-3.3,0.8
		c-1.1,0-2.3-0.3-3.3-0.8c-2.1-1.1-3.4-3.2-3.5-5.5l-0.5-7.6l-0.1-2.1l-0.2-2.7c-0.1-1.4,0.4-2.6,1.3-3.6c0.9-1,2.2-1.5,3.6-1.5H36
		c0.7,0,1.5,0.1,2.1,0.4c0.3,0.2,0.6,0.4,0.8,0.6c0.2,0.1,0.3,0.3,0.5,0.5C40.3,39,40.7,40.3,40.7,41.6z"/>
</g>
</svg>
