<svg id="SvgjsSvg1000" xmlns="http://www.w3.org/2000/svg" version="1.1" xmlns:xlink="http://www.w3.org/1999/xlink" xmlns:svgjs="http://svgjs.com/svgjs" width="31" height="19" viewBox="0 0 31 19"><title>vk</title><desc>Created with Avocode.</desc><defs id="SvgjsDefs1001"></defs><path id="SvgjsPath1007" d="M802.764 1445.37C802.727 1445.29 802.693 1445.2199999999998 802.6610000000001 1445.1699999999998C802.1360000000001 1444.1899999999998 801.133 1442.9899999999998 799.653 1441.57L799.621 1441.54L799.606 1441.52L799.59 1441.51H799.5740000000001C798.902 1440.85 798.4760000000001 1440.4 798.2980000000001 1440.17C797.9720000000001 1439.74 797.8990000000001 1439.3000000000002 798.0770000000001 1438.8500000000001C798.2030000000001 1438.5200000000002 798.6760000000002 1437.8100000000002 799.4950000000001 1436.72C799.9260000000002 1436.15 800.2670000000002 1435.69 800.5190000000001 1435.34C802.3360000000001 1432.85 803.1230000000002 1431.25 802.8820000000002 1430.56L802.7880000000001 1430.3899999999999C802.7250000000001 1430.3 802.5620000000001 1430.2099999999998 802.3000000000001 1430.1299999999999C802.037 1430.04 801.701 1430.03 801.291 1430.08L796.7550000000001 1430.12C796.6820000000001 1430.09 796.5770000000001 1430.09 796.44 1430.1299999999999C796.3030000000001 1430.1599999999999 796.235 1430.1699999999998 796.235 1430.1699999999998L796.1560000000001 1430.2199999999998L796.0930000000001 1430.2699999999998C796.041 1430.2999999999997 795.9830000000001 1430.3499999999997 795.9200000000001 1430.4399999999998C795.8580000000001 1430.5199999999998 795.8050000000001 1430.61 795.763 1430.7199999999998C795.269 1432.0299999999997 794.7080000000001 1433.2499999999998 794.077 1434.3799999999999C793.689 1435.05 793.332 1435.6399999999999 793.006 1436.1299999999999C792.6809999999999 1436.62 792.408 1436.9899999999998 792.187 1437.2199999999998C791.967 1437.4499999999998 791.768 1437.6399999999999 791.589 1437.7799999999997C791.4100000000001 1437.9199999999998 791.274 1437.9799999999998 791.1790000000001 1437.9599999999998C791.085 1437.9399999999998 790.9960000000001 1437.9199999999998 790.9110000000001 1437.8899999999999C790.764 1437.8 790.6460000000001 1437.6599999999999 790.557 1437.4999999999998C790.467 1437.3299999999997 790.407 1437.1199999999997 790.376 1436.8599999999997C790.3439999999999 1436.6099999999997 790.326 1436.3899999999996 790.321 1436.1999999999996C790.316 1436.0199999999995 790.318 1435.7599999999995 790.3290000000001 1435.4199999999996C790.34 1435.0799999999997 790.344 1434.8599999999997 790.344 1434.7399999999996C790.344 1434.3299999999995 790.3520000000001 1433.8799999999997 790.368 1433.3999999999996C790.384 1432.9099999999996 790.397 1432.5299999999997 790.407 1432.2499999999995C790.418 1431.9699999999996 790.423 1431.6699999999996 790.423 1431.3499999999995C790.423 1431.0399999999995 790.405 1430.7899999999995 790.368 1430.6099999999994C790.3320000000001 1430.4399999999994 790.2760000000001 1430.2599999999995 790.2030000000001 1430.0899999999995C790.1290000000001 1429.9299999999994 790.0210000000001 1429.7999999999995 789.8800000000001 1429.6999999999994C789.738 1429.6099999999994 789.5620000000001 1429.5399999999993 789.3520000000001 1429.4799999999993C788.796 1429.3499999999992 788.0870000000001 1429.2799999999993 787.2260000000001 1429.2699999999993C785.2730000000001 1429.2499999999993 784.0180000000001 1429.3799999999992 783.4610000000001 1429.6599999999994C783.2410000000001 1429.7799999999993 783.0410000000002 1429.9399999999994 782.8630000000002 1430.1499999999994C782.6730000000001 1430.3899999999994 782.6470000000002 1430.5199999999993 782.7840000000002 1430.5399999999995C783.4140000000002 1430.6399999999994 783.8600000000002 1430.8699999999994 784.1230000000003 1431.2399999999996L784.2170000000003 1431.4399999999996C784.2910000000003 1431.5799999999997 784.3640000000004 1431.8299999999997 784.4380000000003 1432.1799999999996C784.5110000000003 1432.5399999999995 784.5590000000003 1432.9399999999996 784.5790000000003 1433.3699999999997C784.6320000000003 1434.1599999999996 784.6320000000003 1434.8399999999997 784.5790000000003 1435.3999999999996C784.5270000000003 1435.9699999999996 784.4770000000003 1436.4099999999996 784.4300000000003 1436.7199999999996C784.3820000000003 1437.0399999999995 784.3120000000002 1437.2899999999995 784.2170000000003 1437.4899999999996C784.1230000000003 1437.6799999999996 784.0600000000003 1437.7999999999995 784.0280000000004 1437.8499999999995C783.9970000000004 1437.8899999999994 783.9700000000004 1437.9199999999994 783.9490000000004 1437.9299999999994C783.8130000000004 1437.9799999999993 783.6710000000004 1438.0099999999993 783.5240000000005 1438.0099999999993C783.3770000000004 1438.0099999999993 783.1980000000004 1437.9299999999994 782.9880000000005 1437.7799999999993C782.7790000000006 1437.6299999999992 782.5610000000005 1437.4199999999994 782.3350000000005 1437.1499999999992C782.1090000000005 1436.8899999999992 781.8540000000005 1436.519999999999 781.5710000000005 1436.0399999999993C781.2870000000005 1435.5599999999993 780.9930000000005 1434.9999999999993 780.6890000000005 1434.3499999999992L780.4370000000006 1433.8799999999992C780.2790000000006 1433.5699999999993 780.0640000000005 1433.1299999999992 779.7910000000006 1432.5499999999993C779.5180000000006 1431.9699999999993 779.2760000000006 1431.4099999999992 779.0670000000006 1430.8599999999992C778.9830000000006 1430.6399999999992 778.8570000000005 1430.4599999999991 778.6890000000005 1430.3399999999992L778.6100000000006 1430.2999999999993C778.5570000000006 1430.2499999999993 778.4730000000006 1430.2099999999994 778.3580000000006 1430.1599999999992C778.2420000000006 1430.1099999999992 778.1220000000006 1430.0699999999993 777.9950000000006 1430.0499999999993L773.6800000000005 1430.0799999999992C773.2380000000005 1430.0799999999992 772.9390000000005 1430.1899999999991 772.7820000000005 1430.3899999999992L772.7190000000005 1430.489999999999C772.6870000000005 1430.539999999999 772.6710000000005 1430.6299999999992 772.6710000000005 1430.749999999999C772.6710000000005 1430.869999999999 772.7030000000005 1431.019999999999 772.7660000000005 1431.1899999999991C773.3960000000005 1432.7199999999991 774.0810000000006 1434.1999999999991 774.8210000000005 1435.6199999999992C775.5620000000005 1437.0399999999993 776.2050000000005 1438.1799999999992 776.7510000000004 1439.0499999999993C777.2970000000005 1439.9199999999992 777.8530000000004 1440.7399999999993 778.4200000000004 1441.5099999999993C778.9880000000004 1442.2699999999993 779.3630000000004 1442.7699999999993 779.5470000000004 1442.9899999999993C779.7300000000004 1443.1999999999994 779.8750000000003 1443.3699999999994 779.9800000000004 1443.4699999999993L780.3740000000004 1443.8599999999994C780.6260000000003 1444.1299999999994 780.9960000000003 1444.4399999999994 781.4840000000004 1444.7999999999995C781.9730000000004 1445.1599999999994 782.5130000000004 1445.5199999999995 783.1060000000003 1445.8699999999994C783.7000000000004 1446.2299999999993 784.3900000000003 1446.5099999999995 785.1780000000003 1446.7399999999993C785.9650000000004 1446.9599999999994 786.7320000000003 1447.0499999999993 787.4780000000003 1447.0099999999993H789.2890000000003C789.6560000000003 1446.9699999999993 789.9350000000003 1446.8499999999992 790.1240000000004 1446.6499999999994L790.1870000000004 1446.5699999999995C790.2290000000004 1446.4999999999995 790.2680000000004 1446.3999999999994 790.3050000000004 1446.2599999999995C790.3410000000003 1446.1299999999994 790.3600000000004 1445.9799999999996 790.3600000000004 1445.8199999999995C790.3490000000004 1445.3499999999995 790.3830000000004 1444.9299999999994 790.4620000000003 1444.5599999999995C790.5400000000003 1444.1799999999994 790.6300000000003 1443.8999999999994 790.7300000000004 1443.7099999999996C790.8300000000004 1443.5199999999995 790.9430000000003 1443.3599999999997 791.0690000000004 1443.2299999999996C791.1940000000004 1443.0999999999995 791.2840000000004 1443.0199999999995 791.3370000000004 1442.9899999999996C791.3890000000005 1442.9699999999996 791.4310000000005 1442.9499999999996 791.4620000000004 1442.9399999999996C791.7140000000004 1442.8499999999997 792.0110000000004 1442.9399999999996 792.3530000000004 1443.1899999999996C792.6940000000004 1443.4399999999996 793.0140000000004 1443.7599999999995 793.3140000000004 1444.1299999999997C793.6130000000004 1444.5099999999998 793.9720000000004 1444.9299999999996 794.3920000000004 1445.3899999999996C794.8130000000004 1445.8599999999997 795.1800000000004 1446.2099999999996 795.4950000000003 1446.4399999999996L795.8100000000004 1446.6299999999997C796.0200000000004 1446.7599999999998 796.2930000000003 1446.8799999999997 796.6290000000004 1446.9899999999996C796.9650000000004 1447.0999999999995 797.2590000000004 1447.1299999999997 797.5110000000003 1447.0699999999995L801.5430000000003 1447.0099999999995C801.9420000000003 1447.0099999999995 802.2530000000004 1446.9399999999996 802.4730000000003 1446.7999999999995C802.6930000000003 1446.6699999999994 802.8240000000003 1446.5199999999995 802.8660000000003 1446.3499999999995C802.9090000000003 1446.1899999999994 802.9110000000003 1446.0099999999995 802.8750000000003 1445.7999999999995C802.8370000000003 1445.5899999999995 802.8000000000003 1445.4499999999996 802.7640000000004 1445.3699999999994Z " fill="#000000" fill-opacity="1" transform="matrix(1,0,0,1,-772,-1429)"></path></svg>